<svg width="286" height="108" viewBox="0 0 286 108" fill="none" xmlns="http://www.w3.org/2000/svg">
<path d="M37.7245 29.096C36.0445 29.096 34.3965 28.504 33.5645 27.64L34.0285 26.728C34.8285 27.512 36.2525 28.088 37.7245 28.088C39.8205 28.088 40.7325 27.208 40.7325 26.104C40.7325 23.032 33.8365 24.92 33.8365 20.776C33.8365 19.128 35.1165 17.704 37.9645 17.704C39.2285 17.704 40.5405 18.072 41.4365 18.696L41.0365 19.64C40.0765 19.016 38.9565 18.712 37.9645 18.712C35.9165 18.712 35.0045 19.624 35.0045 20.744C35.0045 23.816 41.9005 21.96 41.9005 26.04C41.9005 27.688 40.5885 29.096 37.7245 29.096ZM50.6883 20.584H51.8243V29H50.7362V27.464C50.1443 28.488 49.0563 29.08 47.7123 29.08C45.5683 29.08 44.1603 27.88 44.1603 25.464V20.584H45.2963V25.352C45.2963 27.144 46.2243 28.056 47.8243 28.056C49.5843 28.056 50.6883 26.92 50.6883 25V20.584ZM61.7099 20.584H62.7979V27.976C62.7979 30.872 61.3739 32.184 58.5899 32.184C57.0539 32.184 55.5499 31.72 54.6699 30.888L55.2459 30.024C56.0459 30.744 57.2619 31.176 58.5579 31.176C60.6859 31.176 61.6619 30.2 61.6619 28.12V27.048C60.9579 28.12 59.7579 28.68 58.3819 28.68C55.9819 28.68 54.1579 27 54.1579 24.584C54.1579 22.168 55.9819 20.52 58.3819 20.52C59.7899 20.52 61.0059 21.096 61.7099 22.2V20.584ZM58.4939 27.672C60.3499 27.672 61.6939 26.408 61.6939 24.584C61.6939 22.76 60.3499 21.512 58.4939 21.512C56.6379 21.512 55.3099 22.76 55.3099 24.584C55.3099 26.408 56.6379 27.672 58.4939 27.672ZM72.6786 20.584H73.7666V27.976C73.7666 30.872 72.3426 32.184 69.5586 32.184C68.0226 32.184 66.5186 31.72 65.6386 30.888L66.2146 30.024C67.0146 30.744 68.2306 31.176 69.5266 31.176C71.6546 31.176 72.6306 30.2 72.6306 28.12V27.048C71.9266 28.12 70.7266 28.68 69.3506 28.68C66.9506 28.68 65.1266 27 65.1266 24.584C65.1266 22.168 66.9506 20.52 69.3506 20.52C70.7586 20.52 71.9746 21.096 72.6786 22.2V20.584ZM69.4626 27.672C71.3186 27.672 72.6626 26.408 72.6626 24.584C72.6626 22.76 71.3186 21.512 69.4626 21.512C67.6066 21.512 66.2786 22.76 66.2786 24.584C66.2786 26.408 67.6066 27.672 69.4626 27.672ZM84.2874 24.792C84.2874 24.888 84.2714 25.016 84.2714 25.144H77.2314C77.3594 26.904 78.7034 28.072 80.5434 28.072C81.5674 28.072 82.4794 27.704 83.1194 26.968L83.7594 27.704C83.0074 28.6 81.8394 29.08 80.5114 29.08C77.8874 29.08 76.0954 27.288 76.0954 24.792C76.0954 22.296 77.8394 20.52 80.2074 20.52C82.5754 20.52 84.2874 22.264 84.2874 24.792ZM80.2074 21.496C78.5754 21.496 77.3754 22.648 77.2314 24.296H83.1994C83.0554 22.648 81.8554 21.496 80.2074 21.496ZM88.8556 29.08C87.4636 29.08 86.1196 28.632 85.4316 28.04L85.9436 27.144C86.6156 27.672 87.7516 28.088 88.9356 28.088C90.5356 28.088 91.1916 27.544 91.1916 26.712C91.1916 24.52 85.7356 26.248 85.7356 22.92C85.7356 21.544 86.9196 20.52 89.0636 20.52C90.1516 20.52 91.3356 20.824 92.0396 21.304L91.5436 22.216C90.8076 21.704 89.9276 21.496 89.0636 21.496C87.5436 21.496 86.8716 22.088 86.8716 22.888C86.8716 25.16 92.3276 23.448 92.3276 26.68C92.3276 28.136 91.0476 29.08 88.8556 29.08ZM98.4598 27.672L98.8598 28.488C98.4118 28.888 97.7398 29.08 97.0838 29.08C95.4998 29.08 94.6198 28.184 94.6198 26.632V21.544H93.1158V20.584H94.6198V18.744H95.7558V20.584H98.3158V21.544H95.7558V26.568C95.7558 27.56 96.2678 28.104 97.2118 28.104C97.6758 28.104 98.1398 27.96 98.4598 27.672ZM101.504 18.744C101.04 18.744 100.672 18.376 100.672 17.928C100.672 17.496 101.04 17.128 101.504 17.128C101.968 17.128 102.336 17.48 102.336 17.912C102.336 18.376 101.984 18.744 101.504 18.744ZM100.928 29V20.584H102.064V29H100.928ZM108.665 29.08C106.201 29.08 104.377 27.288 104.377 24.792C104.377 22.296 106.201 20.52 108.665 20.52C111.129 20.52 112.937 22.296 112.937 24.792C112.937 27.288 111.129 29.08 108.665 29.08ZM108.665 28.072C110.457 28.072 111.785 26.76 111.785 24.792C111.785 22.824 110.457 21.512 108.665 21.512C106.873 21.512 105.529 22.824 105.529 24.792C105.529 26.76 106.873 28.072 108.665 28.072ZM119.544 20.52C121.592 20.52 123 21.704 123 24.12V29H121.864V24.232C121.864 22.456 120.936 21.544 119.336 21.544C117.528 21.544 116.392 22.664 116.392 24.584V29H115.256V20.584H116.344V22.136C116.952 21.112 118.088 20.52 119.544 20.52ZM128.34 29.08C126.948 29.08 125.604 28.632 124.916 28.04L125.428 27.144C126.1 27.672 127.236 28.088 128.42 28.088C130.02 28.088 130.676 27.544 130.676 26.712C130.676 24.52 125.22 26.248 125.22 22.92C125.22 21.544 126.404 20.52 128.548 20.52C129.636 20.52 130.82 20.824 131.524 21.304L131.028 22.216C130.292 21.704 129.412 21.496 128.548 21.496C127.028 21.496 126.356 22.088 126.356 22.888C126.356 25.16 131.812 23.448 131.812 26.68C131.812 28.136 130.532 29.08 128.34 29.08ZM141.044 20.52C143.22 20.52 144.452 21.608 144.452 23.784V29H143.364V27.688C142.852 28.552 141.86 29.08 140.468 29.08C138.564 29.08 137.396 28.088 137.396 26.632C137.396 25.336 138.228 24.248 140.644 24.248H143.316V23.736C143.316 22.296 142.5 21.512 140.932 21.512C139.844 21.512 138.82 21.896 138.132 22.504L137.62 21.656C138.468 20.936 139.716 20.52 141.044 20.52ZM140.644 28.184C141.924 28.184 142.868 27.576 143.316 26.472V25.096H140.676C139.044 25.096 138.516 25.736 138.516 26.6C138.516 27.576 139.3 28.184 140.644 28.184ZM151.825 20.52C153.873 20.52 155.281 21.704 155.281 24.12V29H154.145V24.232C154.145 22.456 153.217 21.544 151.617 21.544C149.809 21.544 148.673 22.664 148.673 24.584V29H147.537V20.584H148.625V22.136C149.233 21.112 150.369 20.52 151.825 20.52ZM164.941 17.128H166.077V29H164.989V27.336C164.301 28.472 163.133 29.08 161.741 29.08C159.341 29.08 157.549 27.336 157.549 24.792C157.549 22.248 159.341 20.52 161.741 20.52C163.085 20.52 164.237 21.096 164.941 22.184V17.128ZM161.837 28.072C163.613 28.072 164.957 26.76 164.957 24.792C164.957 22.824 163.613 21.512 161.837 21.512C160.045 21.512 158.701 22.824 158.701 24.792C158.701 26.76 160.045 28.072 161.837 28.072ZM181.348 18.824H174.852V23.224H180.644V24.248H174.852V29H173.668V17.8H181.348V18.824ZM190.616 24.792C190.616 24.888 190.6 25.016 190.6 25.144H183.56C183.688 26.904 185.032 28.072 186.872 28.072C187.896 28.072 188.808 27.704 189.448 26.968L190.088 27.704C189.336 28.6 188.168 29.08 186.84 29.08C184.216 29.08 182.424 27.288 182.424 24.792C182.424 22.296 184.168 20.52 186.536 20.52C188.904 20.52 190.616 22.264 190.616 24.792ZM186.536 21.496C184.904 21.496 183.704 22.648 183.56 24.296H189.528C189.384 22.648 188.184 21.496 186.536 21.496ZM200.272 24.792C200.272 24.888 200.256 25.016 200.256 25.144H193.216C193.344 26.904 194.688 28.072 196.528 28.072C197.552 28.072 198.464 27.704 199.104 26.968L199.744 27.704C198.992 28.6 197.824 29.08 196.496 29.08C193.872 29.08 192.08 27.288 192.08 24.792C192.08 22.296 193.824 20.52 196.192 20.52C198.56 20.52 200.272 22.264 200.272 24.792ZM196.192 21.496C194.56 21.496 193.36 22.648 193.216 24.296H199.184C199.04 22.648 197.84 21.496 196.192 21.496ZM209.128 17.128H210.264V29H209.176V27.336C208.488 28.472 207.32 29.08 205.928 29.08C203.528 29.08 201.736 27.336 201.736 24.792C201.736 22.248 203.528 20.52 205.928 20.52C207.272 20.52 208.424 21.096 209.128 22.184V17.128ZM206.024 28.072C207.8 28.072 209.144 26.76 209.144 24.792C209.144 22.824 207.8 21.512 206.024 21.512C204.232 21.512 202.888 22.824 202.888 24.792C202.888 26.76 204.232 28.072 206.024 28.072ZM217.764 20.52C220.164 20.52 221.956 22.248 221.956 24.792C221.956 27.336 220.164 29.08 217.764 29.08C216.372 29.08 215.204 28.472 214.516 27.336V29H213.428V17.128H214.564V22.184C215.268 21.096 216.42 20.52 217.764 20.52ZM217.684 28.072C219.46 28.072 220.82 26.76 220.82 24.792C220.82 22.824 219.46 21.512 217.684 21.512C215.892 21.512 214.548 22.824 214.548 24.792C214.548 26.76 215.892 28.072 217.684 28.072ZM227.169 20.52C229.345 20.52 230.577 21.608 230.577 23.784V29H229.489V27.688C228.977 28.552 227.985 29.08 226.593 29.08C224.689 29.08 223.521 28.088 223.521 26.632C223.521 25.336 224.353 24.248 226.769 24.248H229.441V23.736C229.441 22.296 228.625 21.512 227.057 21.512C225.969 21.512 224.945 21.896 224.257 22.504L223.745 21.656C224.593 20.936 225.841 20.52 227.169 20.52ZM226.769 28.184C228.049 28.184 228.993 27.576 229.441 26.472V25.096H226.801C225.169 25.096 224.641 25.736 224.641 26.6C224.641 27.576 225.425 28.184 226.769 28.184ZM237.181 29.08C234.669 29.08 232.845 27.304 232.845 24.792C232.845 22.28 234.669 20.52 237.181 20.52C238.605 20.52 239.805 21.08 240.477 22.184L239.629 22.76C239.053 21.912 238.157 21.512 237.181 21.512C235.341 21.512 233.997 22.824 233.997 24.792C233.997 26.776 235.341 28.072 237.181 28.072C238.157 28.072 239.053 27.688 239.629 26.84L240.477 27.416C239.805 28.504 238.605 29.08 237.181 29.08ZM249.096 29L245.704 24.776L243.72 26.6V29H242.584V17.128H243.72V25.176L248.744 20.584H250.152L246.552 24.024L250.488 29H249.096ZM254.199 29.08C252.807 29.08 251.463 28.632 250.775 28.04L251.287 27.144C251.959 27.672 253.095 28.088 254.279 28.088C255.879 28.088 256.535 27.544 256.535 26.712C256.535 24.52 251.079 26.248 251.079 22.92C251.079 21.544 252.263 20.52 254.407 20.52C255.495 20.52 256.679 20.824 257.383 21.304L256.887 22.216C256.151 21.704 255.271 21.496 254.407 21.496C252.887 21.496 252.215 22.088 252.215 22.888C252.215 25.16 257.671 23.448 257.671 26.68C257.671 28.136 256.391 29.08 254.199 29.08Z" fill="white"/>
<path d="M40.7578 41.5H44.7828L37.2078 59H33.2078L25.6578 41.5H30.0328L35.3578 54L40.7578 41.5ZM51.368 59.2C47.093 59.2 43.968 56.325 43.968 52.275C43.968 48.225 47.093 45.35 51.368 45.35C55.643 45.35 58.743 48.225 58.743 52.275C58.743 56.325 55.643 59.2 51.368 59.2ZM51.368 56C53.318 56 54.793 54.6 54.793 52.275C54.793 49.95 53.318 48.55 51.368 48.55C49.418 48.55 47.918 49.95 47.918 52.275C47.918 54.6 49.418 56 51.368 56ZM63.2998 43.675C61.8498 43.675 60.8748 42.725 60.8748 41.5C60.8748 40.275 61.8498 39.325 63.2998 39.325C64.7498 39.325 65.7248 40.225 65.7248 41.425C65.7248 42.725 64.7498 43.675 63.2998 43.675ZM61.3498 59V45.55H65.2498V59H61.3498ZM75.3693 59.2C70.9943 59.2 67.8693 56.325 67.8693 52.275C67.8693 48.225 70.9943 45.35 75.3693 45.35C78.1943 45.35 80.4193 46.575 81.3943 48.775L78.3693 50.4C77.6443 49.125 76.5693 48.55 75.3443 48.55C73.3693 48.55 71.8193 49.925 71.8193 52.275C71.8193 54.625 73.3693 56 75.3443 56C76.5693 56 77.6443 55.45 78.3693 54.15L81.3943 55.8C80.4193 57.95 78.1943 59.2 75.3693 59.2ZM96.6439 52.325C96.6439 52.625 96.5939 53.05 96.5689 53.375H86.3939C86.7689 55.05 88.1939 56.075 90.2439 56.075C91.6689 56.075 92.6939 55.65 93.6189 54.775L95.6939 57.025C94.4439 58.45 92.5689 59.2 90.1439 59.2C85.4939 59.2 82.4689 56.275 82.4689 52.275C82.4689 48.25 85.5439 45.35 89.6439 45.35C93.5939 45.35 96.6439 48 96.6439 52.325ZM89.6689 48.3C87.8939 48.3 86.6189 49.375 86.3439 51.1H92.9689C92.6939 49.4 91.4189 48.3 89.6689 48.3ZM112.721 59.2C108.446 59.2 105.321 56.325 105.321 52.275C105.321 48.225 108.446 45.35 112.721 45.35C116.996 45.35 120.096 48.225 120.096 52.275C120.096 56.325 116.996 59.2 112.721 59.2ZM112.721 56C114.671 56 116.146 54.6 116.146 52.275C116.146 49.95 114.671 48.55 112.721 48.55C110.771 48.55 109.271 49.95 109.271 52.275C109.271 54.6 110.771 56 112.721 56ZM126.977 45.275V45.85H130.427V48.85H127.077V59H123.177V48.85H121.102V45.85H123.177V45.25C123.177 42.225 125.027 40.25 128.377 40.25C129.477 40.25 130.627 40.475 131.352 40.975L130.327 43.8C129.902 43.5 129.352 43.325 128.752 43.325C127.602 43.325 126.977 43.95 126.977 45.275ZM148.1 59.3C142.675 59.3 138.625 55.525 138.625 50.25C138.625 44.975 142.675 41.2 148.125 41.2C151.15 41.2 153.675 42.3 155.325 44.3L152.725 46.7C151.55 45.35 150.075 44.65 148.325 44.65C145.05 44.65 142.725 46.95 142.725 50.25C142.725 53.55 145.05 55.85 148.325 55.85C150.075 55.85 151.55 55.15 152.725 53.775L155.325 56.175C153.675 58.2 151.15 59.3 148.1 59.3ZM163.721 59.2C159.446 59.2 156.321 56.325 156.321 52.275C156.321 48.225 159.446 45.35 163.721 45.35C167.996 45.35 171.096 48.225 171.096 52.275C171.096 56.325 167.996 59.2 163.721 59.2ZM163.721 56C165.671 56 167.146 54.6 167.146 52.275C167.146 49.95 165.671 48.55 163.721 48.55C161.771 48.55 160.271 49.95 160.271 52.275C160.271 54.6 161.771 56 163.721 56ZM178.228 59.2C175.953 59.2 173.653 58.575 172.403 57.75L173.703 54.95C174.903 55.725 176.728 56.25 178.378 56.25C180.178 56.25 180.853 55.775 180.853 55.025C180.853 52.825 172.728 55.075 172.728 49.7C172.728 47.15 175.028 45.35 178.953 45.35C180.803 45.35 182.853 45.775 184.128 46.525L182.828 49.3C181.503 48.55 180.178 48.3 178.953 48.3C177.203 48.3 176.453 48.85 176.453 49.55C176.453 51.85 184.578 49.625 184.578 54.925C184.578 57.425 182.253 59.2 178.228 59.2ZM194.61 55.6L195.66 58.35C194.86 58.925 193.685 59.2 192.485 59.2C189.31 59.2 187.46 57.575 187.46 54.375V48.85H185.385V45.85H187.46V42.575H191.36V45.85H194.71V48.85H191.36V54.325C191.36 55.475 191.985 56.1 193.035 56.1C193.61 56.1 194.185 55.925 194.61 55.6ZM207.499 45.55H211.399V59H207.699V57.4C206.674 58.575 205.174 59.2 203.524 59.2C200.149 59.2 197.774 57.3 197.774 53.15V45.55H201.674V52.575C201.674 54.825 202.674 55.825 204.399 55.825C206.199 55.825 207.499 54.675 207.499 52.2V45.55ZM232.237 45.35C235.437 45.35 237.737 47.2 237.737 51.3V59H233.837V51.9C233.837 49.725 232.862 48.725 231.287 48.725C229.537 48.725 228.312 49.85 228.312 52.25V59H224.412V51.9C224.412 49.725 223.487 48.725 221.862 48.725C220.137 48.725 218.912 49.85 218.912 52.25V59H215.012V45.55H218.737V47.1C219.737 45.95 221.237 45.35 222.962 45.35C224.837 45.35 226.437 46.075 227.387 47.55C228.462 46.175 230.212 45.35 232.237 45.35ZM254.554 52.325C254.554 52.625 254.504 53.05 254.479 53.375H244.304C244.679 55.05 246.104 56.075 248.154 56.075C249.579 56.075 250.604 55.65 251.529 54.775L253.604 57.025C252.354 58.45 250.479 59.2 248.054 59.2C243.404 59.2 240.379 56.275 240.379 52.275C240.379 48.25 243.454 45.35 247.554 45.35C251.504 45.35 254.554 48 254.554 52.325ZM247.579 48.3C245.804 48.3 244.529 49.375 244.254 51.1H250.879C250.604 49.4 249.329 48.3 247.579 48.3ZM260.876 47.325C261.826 46.025 263.426 45.35 265.501 45.35V48.95C265.176 48.925 264.926 48.9 264.626 48.9C262.476 48.9 261.051 50.075 261.051 52.65V59H257.151V45.55H260.876V47.325Z" fill="white"/>
<path d="M68.9945 103V80.4692H272C278.627 80.4692 284 75.0966 284 68.4692V14C284 7.37258 278.627 2 272 2H14C7.37258 2 2 7.37258 2 14V68.4692C2 75.0966 7.37258 80.4692 14 80.4692H50.5631L68.9945 103Z" stroke="white" stroke-width="3"/>
</svg>
