<svg width="960" height="140" viewBox="0 0 960 140" fill="none" xmlns="http://www.w3.org/2000/svg">
<rect width="960" height="140" rx="18" fill="#9799E7"/>
<path d="M563.244 92.696C550.658 92.696 541.262 83.938 541.262 71.7C541.262 59.462 550.658 50.704 563.302 50.704C570.32 50.704 576.178 53.256 580.006 57.896L573.974 63.464C571.248 60.332 567.826 58.708 563.766 58.708C556.168 58.708 550.774 64.044 550.774 71.7C550.774 79.356 556.168 84.692 563.766 84.692C567.826 84.692 571.248 83.068 573.974 79.878L580.006 85.446C576.178 90.144 570.32 92.696 563.244 92.696ZM632.113 92H623.297L623.239 67.64L611.291 87.708H607.057L595.167 68.162V92H586.351V51.4H594.123L609.319 76.63L624.283 51.4H631.997L632.113 92ZM659.784 92.696C648.242 92.696 641.398 86.084 641.398 74.136V51.4H650.794V73.788C650.794 81.502 654.158 84.692 659.842 84.692C665.584 84.692 668.89 81.502 668.89 73.788V51.4H678.17V74.136C678.17 86.084 671.326 92.696 659.784 92.696ZM749.642 92H740.826L740.768 67.64L728.82 87.708H724.586L712.696 68.162V92H703.88V51.4H711.652L726.848 76.63L741.812 51.4H749.526L749.642 92ZM773.485 92.464C763.567 92.464 756.317 85.794 756.317 76.398C756.317 67.002 763.567 60.332 773.485 60.332C783.403 60.332 790.595 67.002 790.595 76.398C790.595 85.794 783.403 92.464 773.485 92.464ZM773.485 85.04C778.009 85.04 781.431 81.792 781.431 76.398C781.431 71.004 778.009 67.756 773.485 67.756C768.961 67.756 765.481 71.004 765.481 76.398C765.481 81.792 768.961 85.04 773.485 85.04ZM815.087 60.332C823.845 60.332 830.631 66.596 830.631 76.398C830.631 86.2 823.845 92.464 815.087 92.464C810.911 92.464 807.547 91.13 805.285 88.404V92H796.643V48.964H805.691V64.102C808.011 61.55 811.201 60.332 815.087 60.332ZM813.521 85.04C818.045 85.04 821.467 81.792 821.467 76.398C821.467 71.004 818.045 67.756 813.521 67.756C808.997 67.756 805.575 71.004 805.575 76.398C805.575 81.792 808.997 85.04 813.521 85.04ZM841.212 56.446C837.848 56.446 835.586 54.242 835.586 51.4C835.586 48.558 837.848 46.354 841.212 46.354C844.576 46.354 846.838 48.442 846.838 51.226C846.838 54.242 844.576 56.446 841.212 56.446ZM836.688 92V60.796H845.736V92H836.688ZM854.133 92V48.964H863.181V92H854.133ZM902.144 76.514C902.144 77.21 902.028 78.196 901.97 78.95H878.364C879.234 82.836 882.54 85.214 887.296 85.214C890.602 85.214 892.98 84.228 895.126 82.198L899.94 87.418C897.04 90.724 892.69 92.464 887.064 92.464C876.276 92.464 869.258 85.678 869.258 76.398C869.258 67.06 876.392 60.332 885.904 60.332C895.068 60.332 902.144 66.48 902.144 76.514ZM885.962 67.176C881.844 67.176 878.886 69.67 878.248 73.672H893.618C892.98 69.728 890.022 67.176 885.962 67.176Z" fill="white"/>
<path d="M49.544 90.56C47.864 90.56 46.4453 90.2987 45.288 89.776C44.1307 89.2533 43.2533 88.4693 42.656 87.424C42.0587 86.3413 41.76 84.9973 41.76 83.392V59.312H50.16V82.384C50.16 83.0933 50.3093 83.616 50.608 83.952C50.944 84.288 51.448 84.456 52.12 84.456C52.4187 84.456 52.736 84.4187 53.072 84.344C53.408 84.2693 53.7253 84.176 54.024 84.064L54.808 89.44C54.0987 89.8133 53.296 90.0933 52.4 90.28C51.504 90.4667 50.552 90.56 49.544 90.56ZM66.4 90.56C64.72 90.56 63.3013 90.2987 62.144 89.776C60.9867 89.2533 60.1093 88.4693 59.512 87.424C58.9147 86.3413 58.616 84.9973 58.616 83.392V59.312H67.016V82.384C67.016 83.0933 67.1653 83.616 67.464 83.952C67.8 84.288 68.304 84.456 68.976 84.456C69.2747 84.456 69.592 84.4187 69.928 84.344C70.264 84.2693 70.5813 84.176 70.88 84.064L71.664 89.44C70.9547 89.8133 70.152 90.0933 69.256 90.28C68.36 90.4667 67.408 90.56 66.4 90.56ZM86.9936 90.56C84.7162 90.56 82.7936 90.1307 81.2256 89.272C79.6949 88.376 78.5189 87.0507 77.6976 85.296C76.9136 83.5413 76.5216 81.3947 76.5216 78.856V59.312H84.9216V77.4C84.9216 79.4533 85.3322 80.9467 86.1536 81.88C86.9749 82.8133 88.1696 83.28 89.7376 83.28C91.7162 83.28 93.2469 82.5333 94.3296 81.04C95.4122 79.5093 95.9536 77.1573 95.9536 73.984V59.312H104.354V90H97.9696L97.0736 85.296H96.5696C95.9349 86.7893 94.8336 88.04 93.2656 89.048C91.7349 90.056 89.6442 90.56 86.9936 90.56ZM117.989 71.912C116.271 71.912 114.909 71.6507 113.901 71.128C112.893 70.6053 112.165 69.9147 111.717 69.056C111.269 68.16 111.045 67.2267 111.045 66.256C111.045 65.6213 111.138 64.968 111.325 64.296C111.511 63.5867 111.791 62.896 112.165 62.224L118.269 63.008C118.194 63.2693 118.119 63.5493 118.045 63.848C118.007 64.1467 117.989 64.464 117.989 64.8C117.989 65.2853 118.138 65.6773 118.437 65.976C118.735 66.2373 119.258 66.368 120.005 66.368H126.333V71.912H117.989ZM117.989 87.592C116.271 87.592 114.909 87.3307 113.901 86.808C112.893 86.2853 112.165 85.5947 111.717 84.736C111.269 83.84 111.045 82.9067 111.045 81.936C111.045 81.3013 111.138 80.648 111.325 79.976C111.511 79.2667 111.791 78.576 112.165 77.904L118.269 78.688C118.194 78.9493 118.119 79.2293 118.045 79.528C118.007 79.8267 117.989 80.144 117.989 80.48C117.989 80.9653 118.138 81.3573 118.437 81.656C118.735 81.9173 119.258 82.048 120.005 82.048H126.333V87.592H117.989ZM143.267 90.56C140.99 90.56 139.067 90.1307 137.499 89.272C135.968 88.376 134.792 87.0507 133.971 85.296C133.187 83.5413 132.795 81.3947 132.795 78.856V59.312H141.195V77.4C141.195 79.4533 141.606 80.9467 142.427 81.88C143.248 82.8133 144.443 83.28 146.011 83.28C147.99 83.28 149.52 82.5333 150.603 81.04C151.686 79.5093 152.227 77.1573 152.227 73.984V59.312H160.627V90H154.243L153.347 85.296H152.843C152.208 86.7893 151.107 88.04 149.539 89.048C148.008 90.056 145.918 90.56 143.267 90.56ZM154.942 56.288C152.814 56.288 151.115 55.8027 149.846 54.832C148.577 53.8613 147.942 52.4987 147.942 50.744C147.942 48.9893 148.577 47.6267 149.846 46.656C151.115 45.6853 152.814 45.2 154.942 45.2C157.07 45.2 158.787 45.6853 160.094 46.656C161.363 47.6267 161.998 48.9893 161.998 50.744C161.998 52.4987 161.363 53.8613 160.094 54.832C158.787 55.8027 157.07 56.288 154.942 56.288ZM154.942 53.04C155.763 53.04 156.398 52.8347 156.846 52.424C157.294 52.0133 157.518 51.4533 157.518 50.744C157.518 50.0347 157.294 49.4747 156.846 49.064C156.398 48.6533 155.763 48.448 154.942 48.448C154.158 48.448 153.542 48.6533 153.094 49.064C152.646 49.4747 152.422 50.0347 152.422 50.744C152.422 51.4533 152.646 52.0133 153.094 52.424C153.542 52.8347 154.158 53.04 154.942 53.04ZM177.118 90V69.728C177.118 68.16 176.745 67.0213 175.998 66.312C175.289 65.6027 174.113 65.248 172.47 65.248C171.238 65.248 170.099 65.416 169.054 65.752C168.046 66.088 167.094 66.4987 166.198 66.984V60.264C167.019 59.8907 168.177 59.5173 169.67 59.144C171.163 58.7707 172.918 58.584 174.934 58.584C176.987 58.584 178.798 58.8827 180.366 59.48C181.971 60.0773 183.222 61.0853 184.118 62.504C185.051 63.8853 185.518 65.7893 185.518 68.216V90H177.118ZM239.163 58.08H218.611V68.44H236.755V75.72H218.611V90H209.539V50.8H239.163V58.08ZM273.435 75.048C273.435 75.72 273.323 76.672 273.267 77.4H250.475C251.315 81.152 254.507 83.448 259.099 83.448C262.291 83.448 264.587 82.496 266.659 80.536L271.307 85.576C268.507 88.768 264.307 90.448 258.875 90.448C248.459 90.448 241.683 83.896 241.683 74.936C241.683 65.92 248.571 59.424 257.755 59.424C266.603 59.424 273.435 65.36 273.435 75.048ZM257.811 66.032C253.835 66.032 250.979 68.44 250.363 72.304H265.203C264.587 68.496 261.731 66.032 257.811 66.032ZM290.582 59.424C299.766 59.424 305.086 63.68 305.086 72.808V90H296.91V86.248C295.286 88.992 292.15 90.448 287.726 90.448C280.67 90.448 276.47 86.528 276.47 81.32C276.47 76 280.222 72.304 289.406 72.304H296.35C296.35 68.552 294.11 66.368 289.406 66.368C286.214 66.368 282.91 67.432 280.726 69.168L277.59 63.064C280.894 60.712 285.766 59.424 290.582 59.424ZM289.91 84.568C292.822 84.568 295.342 83.224 296.35 80.48V77.4H290.358C286.27 77.4 284.982 78.912 284.982 80.928C284.982 83.112 286.83 84.568 289.91 84.568ZM330.073 82.384L332.425 88.544C330.633 89.832 328.001 90.448 325.313 90.448C318.201 90.448 314.057 86.808 314.057 79.64V67.264H309.409V60.544H314.057V53.208H322.793V60.544H330.297V67.264H322.793V79.528C322.793 82.104 324.193 83.504 326.545 83.504C327.833 83.504 329.121 83.112 330.073 82.384ZM358.945 59.872H367.681V90H359.393V86.416C357.097 89.048 353.737 90.448 350.041 90.448C342.481 90.448 337.161 86.192 337.161 76.896V59.872H345.897V75.608C345.897 80.648 348.137 82.888 352.001 82.888C356.033 82.888 358.945 80.312 358.945 74.768V59.872ZM384.118 63.848C386.246 60.936 389.83 59.424 394.478 59.424V67.488C393.75 67.432 393.19 67.376 392.518 67.376C387.702 67.376 384.51 70.008 384.51 75.776V90H375.774V59.872H384.118V63.848ZM428.911 75.048C428.911 75.72 428.799 76.672 428.743 77.4H405.951C406.791 81.152 409.983 83.448 414.575 83.448C417.767 83.448 420.063 82.496 422.135 80.536L426.783 85.576C423.983 88.768 419.783 90.448 414.351 90.448C403.935 90.448 397.159 83.896 397.159 74.936C397.159 65.92 404.047 59.424 413.231 59.424C422.079 59.424 428.911 65.36 428.911 75.048ZM413.287 66.032C409.311 66.032 406.455 68.44 405.839 72.304H420.679C420.063 68.496 417.207 66.032 413.287 66.032ZM444.863 90.448C439.767 90.448 434.615 89.048 431.815 87.2L434.727 80.928C437.415 82.664 441.503 83.84 445.199 83.84C449.231 83.84 450.743 82.776 450.743 81.096C450.743 76.168 432.543 81.208 432.543 69.168C432.543 63.456 437.695 59.424 446.487 59.424C450.631 59.424 455.223 60.376 458.079 62.056L455.167 68.272C452.199 66.592 449.231 66.032 446.487 66.032C442.567 66.032 440.887 67.264 440.887 68.832C440.887 73.984 459.087 69 459.087 80.872C459.087 86.472 453.879 90.448 444.863 90.448Z" fill="white"/>
<line x1="501.5" y1="41" x2="501.5" y2="113" stroke="white" stroke-width="3"/>
</svg>
